999
"DXF R12 Output" (www.mydxf.blogspot.com)
 0 
SECTION
 2 
HEADER
 9 
$ACADVER
 1 
AC1009
 9 
$EXTMIN
 10 
 0 
 20 
 0 
 9 
$EXTMAX
 10 
 8.5 
 20 
 11 
 0 
ENDSEC
 0 
SECTION
 2 
ENTITIES
0
LINE
8
Layer 1
10
0.793749
20
129.294000
11
-0.793749
21
127.706000
0
LINE
8
Layer 1
10
0.000000
20
129.823000
11
0.000000
21
127.177000
0
LINE
8
Layer 1
10
2.116660
20
127.442000
11
1.058330
21
126.383670
0
LINE
8
Layer 1
10
1.587500
20
127.971000
11
0.529170
21
126.912670
0
LINE
8
Layer 1
10
1.058330
20
128.500000
11
0.000000
21
127.441670
0
LINE
8
0
10
0.000000
20
128.500000
11
0.000000
21
-0.000004
0
LINE
8
0
10
0.000000
20
-0.000004
11
81.279700
21
-0.000004
0
LINE
8
0
10
81.279700
20
-0.000004
11
81.279700
21
128.500000
0
LINE
8
0
10
81.279700
20
128.500000
11
0.000000
21
128.500000
0
LINE
8
0
10
7.450180
20
127.100090
11
8.072916
21
126.974335
0
LINE
8
0
10
8.072916
20
126.974335
11
8.581451
21
126.631461
0
LINE
8
0
10
8.581451
20
126.631461
11
8.924325
21
126.122926
0
LINE
8
0
10
8.924325
20
126.122926
11
9.050080
21
125.500190
0
LINE
8
0
10
9.050080
20
125.500190
11
8.928417
21
124.887791
0
LINE
8
0
10
8.928417
20
124.887791
11
8.581635
21
124.368583
0
LINE
8
0
10
8.581635
20
124.368583
11
8.062540
21
124.021632
0
LINE
8
0
10
8.062540
20
124.021632
11
7.450180
21
123.899770
0
LINE
8
0
10
7.450180
20
123.899770
11
6.837660
21
124.021482
0
LINE
8
0
10
6.837660
20
124.021482
11
6.318389
21
124.368399
0
LINE
8
0
10
6.318389
20
124.368399
11
5.971472
21
124.887670
0
LINE
8
0
10
5.971472
20
124.887670
11
5.849760
21
125.500190
0
LINE
8
0
10
5.849760
20
125.500190
11
5.971622
21
126.112550
0
LINE
8
0
10
5.971622
20
126.112550
11
6.318573
21
126.631645
0
LINE
8
0
10
6.318573
20
126.631645
11
6.837781
21
126.978427
0
LINE
8
0
10
6.837781
20
126.978427
11
7.450180
21
127.100090
0
LINE
8
0
10
7.450180
20
127.100090
11
7.450180
21
127.100090
0
LINE
8
0
10
73.489980
20
127.100090
11
74.112716
21
126.974335
0
LINE
8
0
10
74.112716
20
126.974335
11
74.621251
21
126.631461
0
LINE
8
0
10
74.621251
20
126.631461
11
74.964125
21
126.122926
0
LINE
8
0
10
74.964125
20
126.122926
11
75.089880
21
125.500190
0
LINE
8
0
10
75.089880
20
125.500190
11
74.968217
21
124.887791
0
LINE
8
0
10
74.968217
20
124.887791
11
74.621435
21
124.368583
0
LINE
8
0
10
74.621435
20
124.368583
11
74.102340
21
124.021632
0
LINE
8
0
10
74.102340
20
124.021632
11
73.489980
21
123.899770
0
LINE
8
0
10
73.489980
20
123.899770
11
72.877620
21
124.021632
0
LINE
8
0
10
72.877620
20
124.021632
11
72.358525
21
124.368583
0
LINE
8
0
10
72.358525
20
124.368583
11
72.011743
21
124.887791
0
LINE
8
0
10
72.011743
20
124.887791
11
71.890080
21
125.500190
0
LINE
8
0
10
71.890080
20
125.500190
11
72.015835
21
126.122926
0
LINE
8
0
10
72.015835
20
126.122926
11
72.358709
21
126.631461
0
LINE
8
0
10
72.358709
20
126.631461
11
72.867244
21
126.974335
0
LINE
8
0
10
72.867244
20
126.974335
11
73.489980
21
127.100090
0
LINE
8
0
10
73.489980
20
127.100090
11
73.489980
21
127.100090
0
LINE
8
0
10
40.639800
20
75.250100
11
42.795833
21
75.036841
0
LINE
8
0
10
42.795833
20
75.036841
11
44.849364
21
74.412880
0
LINE
8
0
10
44.849364
20
74.412880
11
46.742687
21
73.402117
0
LINE
8
0
10
46.742687
20
73.402117
11
48.418098
21
72.028451
0
LINE
8
0
10
48.418098
20
72.028451
11
49.791839
21
70.353103
0
LINE
8
0
10
49.791839
20
70.353103
11
50.802689
21
68.459826
0
LINE
8
0
10
50.802689
20
68.459826
11
51.426743
21
66.406323
0
LINE
8
0
10
51.426743
20
66.406323
11
51.640100
21
64.250300
0
LINE
8
0
10
51.640100
20
64.250300
11
51.426846
21
62.094191
0
LINE
8
0
10
51.426846
20
62.094191
11
50.802861
21
60.040590
0
LINE
8
0
10
50.802861
20
60.040590
11
49.792048
21
58.147210
0
LINE
8
0
10
49.792048
20
58.147210
11
48.418310
21
56.471761
0
LINE
8
0
10
48.418310
20
56.471761
11
46.742873
21
55.098008
0
LINE
8
0
10
46.742873
20
55.098008
11
44.849502
21
54.087177
0
LINE
8
0
10
44.849502
20
54.087177
11
42.795908
21
53.463173
0
LINE
8
0
10
42.795908
20
53.463173
11
40.639800
21
53.249900
0
LINE
8
0
10
40.639800
20
53.249900
11
38.483764
21
53.463259
0
LINE
8
0
10
38.483764
20
53.463259
11
36.430251
21
54.087321
0
LINE
8
0
10
36.430251
20
54.087321
11
34.536966
21
55.098182
0
LINE
8
0
10
34.536966
20
55.098182
11
32.861613
21
56.471938
0
LINE
8
0
10
32.861613
20
56.471938
11
31.487949
21
58.147365
0
LINE
8
0
10
31.487949
20
58.147365
11
30.477191
21
60.040706
0
LINE
8
0
10
30.477191
20
60.040706
11
29.853241
21
62.094253
0
LINE
8
0
10
29.853241
20
62.094253
11
29.640000
21
64.250300
0
LINE
8
0
10
29.640000
20
64.250300
11
29.863510
21
66.467126
0
LINE
8
0
10
29.863510
20
66.467126
11
30.504472
21
68.531884
0
LINE
8
0
10
30.504472
20
68.531884
11
31.518654
21
70.400344
0
LINE
8
0
10
31.518654
20
70.400344
11
32.861825
21
72.028275
0
LINE
8
0
10
32.861825
20
72.028275
11
34.489756
21
73.371446
0
LINE
8
0
10
34.489756
20
73.371446
11
36.358216
21
74.385628
0
LINE
8
0
10
36.358216
20
74.385628
11
38.422974
21
75.026590
0
LINE
8
0
10
38.422974
20
75.026590
11
40.639800
21
75.250100
0
LINE
8
0
10
40.639800
20
75.250100
11
40.639800
21
75.250100
0
LINE
8
0
10
7.450180
20
4.600230
11
8.072916
21
4.474475
0
LINE
8
0
10
8.072916
20
4.474475
11
8.581451
21
4.131601
0
LINE
8
0
10
8.581451
20
4.131601
11
8.924325
21
3.623066
0
LINE
8
0
10
8.924325
20
3.623066
11
9.050080
21
3.000330
0
LINE
8
0
10
9.050080
20
3.000330
11
8.928417
21
2.387931
0
LINE
8
0
10
8.928417
20
2.387931
11
8.581635
21
1.868723
0
LINE
8
0
10
8.581635
20
1.868723
11
8.062540
21
1.521772
0
LINE
8
0
10
8.062540
20
1.521772
11
7.450180
21
1.399910
0
LINE
8
0
10
7.450180
20
1.399910
11
6.837660
21
1.521622
0
LINE
8
0
10
6.837660
20
1.521622
11
6.318389
21
1.868539
0
LINE
8
0
10
6.318389
20
1.868539
11
5.971472
21
2.387810
0
LINE
8
0
10
5.971472
20
2.387810
11
5.849760
21
3.000330
0
LINE
8
0
10
5.849760
20
3.000330
11
5.971622
21
3.612690
0
LINE
8
0
10
5.971622
20
3.612690
11
6.318573
21
4.131785
0
LINE
8
0
10
6.318573
20
4.131785
11
6.837781
21
4.478567
0
LINE
8
0
10
6.837781
20
4.478567
11
7.450180
21
4.600230
0
LINE
8
0
10
7.450180
20
4.600230
11
7.450180
21
4.600230
0
LINE
8
0
10
73.489980
20
4.600230
11
74.112716
21
4.474475
0
LINE
8
0
10
74.112716
20
4.474475
11
74.621251
21
4.131601
0
LINE
8
0
10
74.621251
20
4.131601
11
74.964125
21
3.623066
0
LINE
8
0
10
74.964125
20
3.623066
11
75.089880
21
3.000330
0
LINE
8
0
10
75.089880
20
3.000330
11
74.968217
21
2.387931
0
LINE
8
0
10
74.968217
20
2.387931
11
74.621435
21
1.868723
0
LINE
8
0
10
74.621435
20
1.868723
11
74.102340
21
1.521772
0
LINE
8
0
10
74.102340
20
1.521772
11
73.489980
21
1.399910
0
LINE
8
0
10
73.489980
20
1.399910
11
72.877620
21
1.521772
0
LINE
8
0
10
72.877620
20
1.521772
11
72.358525
21
1.868723
0
LINE
8
0
10
72.358525
20
1.868723
11
72.011743
21
2.387931
0
LINE
8
0
10
72.011743
20
2.387931
11
71.890080
21
3.000330
0
LINE
8
0
10
71.890080
20
3.000330
11
72.015835
21
3.623066
0
LINE
8
0
10
72.015835
20
3.623066
11
72.358709
21
4.131601
0
LINE
8
0
10
72.358709
20
4.131601
11
72.867244
21
4.474475
0
LINE
8
0
10
72.867244
20
4.474475
11
73.489980
21
4.600230
0
LINE
8
0
10
73.489980
20
4.600230
11
73.489980
21
4.600230
 0 
ENDSEC
 0 
EOF