999
"DXF R12 Output" (www.mydxf.blogspot.com)
 0 
SECTION
 2 
HEADER
 9 
$ACADVER
 1 
AC1009
 9 
$EXTMIN
 10 
 0 
 20 
 0 
 9 
$EXTMAX
 10 
 8.5 
 20 
 11 
 0 
ENDSEC
 0 
SECTION
 2 
ENTITIES
0
LINE
8
Layer 1
10
0.793749
20
23.058300
11
-0.793749
21
21.470900
0
LINE
8
Layer 1
10
0.000000
20
23.587500
11
0.000000
21
20.941700
0
LINE
8
Layer 1
10
2.116660
20
21.206300
11
1.058330
21
20.147970
0
LINE
8
Layer 1
10
1.587500
20
21.735400
11
0.529170
21
20.677070
0
LINE
8
Layer 1
10
1.058330
20
22.264600
11
0.000000
21
21.206270
0
LINE
8
Layer_1
10
0.132292
20
0.132899
11
0.132292
21
8.132790
0
LINE
8
Layer_1
10
0.132292
20
8.132790
11
16.631900
21
8.132790
0
LINE
8
Layer_1
10
16.631900
20
8.132790
11
16.631900
21
22.132900
0
LINE
8
Layer_1
10
16.631900
20
22.132900
11
23.631900
21
22.132900
0
LINE
8
Layer_1
10
23.631900
20
22.132900
11
23.631900
21
18.132600
0
LINE
8
Layer_1
10
23.631900
20
18.132600
11
22.632000
21
18.132600
0
LINE
8
Layer_1
10
22.632000
20
18.132600
11
22.632000
21
15.132900
0
LINE
8
Layer_1
10
22.632000
20
15.132900
11
23.631900
21
15.132900
0
LINE
8
Layer_1
10
23.631900
20
15.132900
11
23.631900
21
8.132790
0
LINE
8
Layer_1
10
23.631900
20
8.132790
11
56.632100
21
8.132790
0
LINE
8
Layer_1
10
56.632100
20
8.132790
11
56.632100
21
16.132900
0
LINE
8
Layer_1
10
56.632100
20
16.132900
11
57.631512
21
17.132698
0
LINE
8
Layer_1
10
57.631512
20
17.132698
11
57.631500
21
18.132600
0
LINE
8
Layer_1
10
57.631500
20
18.132600
11
56.632088
21
19.132599
0
LINE
8
Layer_1
10
56.632088
20
19.132599
11
56.632100
21
22.132900
0
LINE
8
Layer_1
10
56.632100
20
22.132900
11
70.631600
21
22.132900
0
LINE
8
Layer_1
10
70.631600
20
22.132900
11
70.631600
21
15.132900
0
LINE
8
Layer_1
10
70.631600
20
15.132900
11
67.631300
21
15.132900
0
LINE
8
Layer_1
10
67.631300
20
15.132900
11
67.631300
21
19.132600
0
LINE
8
Layer_1
10
67.631300
20
19.132600
11
60.631800
21
19.132600
0
LINE
8
Layer_1
10
60.631800
20
19.132600
11
60.631800
21
8.132790
0
LINE
8
Layer_1
10
60.631800
20
8.132790
11
200.130000
21
8.132790
0
LINE
8
Layer_1
10
200.130000
20
8.132790
11
200.130000
21
0.132899
0
LINE
8
Layer_1
10
200.130000
20
0.132899
11
0.132292
21
0.132899
 0 
ENDSEC
 0 
EOF